<svg viewBox="0 0 213 83" fill="none" xmlns="http://www.w3.org/2000/svg">
  <path d="M0 13H112C116.418 13 120 16.5817 120 21V45C120 49.4183 116.418 53 112 53H0"
    stroke="url(#paint0_linear_689_198)" />
  <path d="M0 1H200C206.627 1 212 6.37258 212 13V53C212 59.6274 206.627 65 200 65H0"
    stroke="url(#paint1_linear_689_198)" />
  <path
    d="M100.647 26.0907L102.815 30.3087L106.912 30.7066C107.393 30.7862 107.554 31.2637 107.233 31.5821L103.859 34.9247L105.145 39.461C105.225 39.859 104.823 40.3365 104.341 40.0977L100.165 37.9489L96.0685 40.0181C95.8276 40.1773 95.185 39.9385 95.3456 39.3814L96.6307 34.7655L93.177 31.5821C92.9361 31.2637 92.8558 30.7862 93.4983 30.7066L97.5946 30.3087L99.7632 26.0907C100.004 25.6132 100.406 25.6928 100.647 26.0907Z"
    stroke="#808292" stroke-width="1.6" stroke-linecap="round" stroke-linejoin="round" />
  <rect x="132" y="13" width="40" height="40" rx="8" fill="#154A82" />
  <g clip-path="url(#clip0_689_198)">
    <path fill-rule="evenodd" clip-rule="evenodd"
      d="M139.998 33.0005C139.998 26.3745 145.372 21.0004 151.998 21.0004C158.624 21.0004 163.998 26.3745 163.998 33.0005C163.998 35.0768 163.473 37.031 162.539 38.7349C161.879 39.944 160.255 39.9746 159.314 38.973L152.016 31.2233L144.67 38.9669C143.723 39.9623 142.105 39.9257 141.445 38.7226C140.523 37.0188 139.998 35.0707 139.998 33.0005ZM161.928 33.0005C161.928 27.5164 157.482 23.0706 151.998 23.0706C146.514 23.0706 142.068 27.5164 142.068 33.0005C142.068 34.1058 142.245 34.918 142.581 35.7303C142.862 36.4142 143.79 36.4387 144.193 35.8219L152.016 23.6874L159.797 35.8402C160.193 36.4631 161.128 36.4387 161.409 35.7547C161.745 34.9364 161.928 34.1119 161.928 33.0005Z"
      fill="white" />
    <path fill-rule="evenodd" clip-rule="evenodd" d="M149.665 36.9272L152.016 34.515L154.337 36.9272H149.665Z"
      fill="white" />
    <path
      d="M144.517 42.3868C146.569 44.0235 149.17 45.0006 151.998 45.0006C154.825 45.0006 157.427 44.0235 159.479 42.3868L156.016 38.7104H147.979L144.517 42.3868Z"
      fill="white" />
  </g>
  <g clip-path="url(#clip1_689_198)">
    <circle cx="192.5" cy="27.0312" r="2" transform="rotate(90 192.5 27.0312)" fill="#808292" />
    <circle cx="192.5" cy="33.0312" r="2" transform="rotate(90 192.5 33.0312)" fill="#808292" />
    <circle cx="192.5" cy="39.0312" r="2" transform="rotate(90 192.5 39.0312)" fill="#808292" />
  </g>
  <path d="M151.991 57C152.011 57.3922 151.991 58.3333 151.991 58.7267C152.033 70.9793 142.412 81.161 130 82"
    stroke="#808292" stroke-width="2" stroke-linecap="round" stroke-linejoin="round" />
  <path d="M146.781 62.2333L152.015 57L157.248 62.2333" stroke="#808292" stroke-width="2" stroke-linecap="round"
    stroke-linejoin="round" />
  <defs>
    <linearGradient id="paint0_linear_689_198" x1="112.023" y1="33" x2="-3.73189e-07" y2="33"
      gradientUnits="userSpaceOnUse">
      <stop stop-color="#7F8191" />
      <stop offset="1" stop-color="#383838" />
    </linearGradient>
    <linearGradient id="paint1_linear_689_198" x1="197.908" y1="33" x2="-6.593e-07" y2="33"
      gradientUnits="userSpaceOnUse">
      <stop stop-color="#7F8191" />
      <stop offset="1" stop-color="#383838" />
    </linearGradient>
    <clipPath id="clip0_689_198">
      <rect width="24" height="24.0002" fill="white" transform="translate(140 21)" />
    </clipPath>
    <clipPath id="clip1_689_198">
      <rect x="200" y="41" width="16" height="16" rx="8" transform="rotate(-180 200 41)" fill="white" />
    </clipPath>
  </defs>
</svg>