<svg viewBox="0 0 213 83" fill="none" xmlns="http://www.w3.org/2000/svg">
  <path d="M0.5 13H112.5C116.918 13 120.5 16.5817 120.5 21V45C120.5 49.4183 116.918 53 112.5 53H0.5"
    stroke="url(#paint0_linear_19_29)" />
  <path d="M0.5 1H200.5C207.127 1 212.5 6.37258 212.5 13V53C212.5 59.6274 207.127 65 200.5 65H0.5"
    stroke="url(#paint1_linear_19_29)" />
  <path
    d="M101.147 26.0907L103.315 30.3087L107.412 30.7066C107.893 30.7862 108.054 31.2637 107.733 31.5821L104.359 34.9247L105.645 39.461C105.725 39.859 105.323 40.3365 104.841 40.0977L100.665 37.9489L96.5685 40.0181C96.3276 40.1773 95.685 39.9385 95.8456 39.3814L97.1307 34.7655L93.677 31.5821C93.4361 31.2637 93.3558 30.7862 93.9983 30.7066L98.0946 30.3087L100.263 26.0907C100.504 25.6132 100.906 25.6928 101.147 26.0907Z"
    stroke="#72768E" stroke-width="1.6" stroke-linecap="round" stroke-linejoin="round" />
  <rect x="133" y="13.5" width="39" height="39" rx="7.5" fill="#E6EFF9" stroke="#235B95" />
  <g clip-path="url(#clip0_19_29)">
    <path fill-rule="evenodd" clip-rule="evenodd"
      d="M140.803 33.3033C140.803 26.6773 146.177 21.3032 152.803 21.3032C159.429 21.3032 164.803 26.6773 164.803 33.3033C164.803 35.3797 164.278 37.3339 163.343 39.0377C162.684 40.2469 161.059 40.2774 160.119 39.2759L152.821 31.5262L145.474 39.2698C144.528 40.2652 142.91 40.2286 142.25 39.0255C141.328 37.3217 140.803 35.3736 140.803 33.3033ZM162.733 33.3033C162.733 27.8193 158.287 23.3735 152.803 23.3735C147.319 23.3735 142.873 27.8193 142.873 33.3033C142.873 34.4087 143.05 35.2209 143.386 36.0331C143.667 36.7171 144.595 36.7415 144.998 36.1247L152.821 23.9903L160.601 36.143C160.998 36.7659 161.933 36.7415 162.213 36.0575C162.549 35.2392 162.733 34.4148 162.733 33.3033Z"
      fill="#235B95" />
    <path fill-rule="evenodd" clip-rule="evenodd" d="M150.47 37.2301L152.821 34.8179L155.142 37.2301H150.47Z"
      fill="#235B95" />
    <path
      d="M145.322 42.6895C147.373 44.3262 149.975 45.3033 152.802 45.3033C155.63 45.3033 158.231 44.3262 160.283 42.6895L156.821 39.0132H148.784L145.322 42.6895Z"
      fill="#235B95" />
  </g>
  <g clip-path="url(#clip1_19_29)">
    <circle cx="193" cy="27.0312" r="2" transform="rotate(90 193 27.0312)" fill="#31333F" />
    <circle cx="193" cy="33.0312" r="2" transform="rotate(90 193 33.0312)" fill="#31333F" />
    <circle cx="193" cy="39.0312" r="2" transform="rotate(90 193 39.0312)" fill="#31333F" />
  </g>
  <path d="M152.491 57C152.511 57.3922 152.491 58.3333 152.491 58.7267C152.533 70.9793 142.912 81.161 130.5 82"
    stroke="#31333F" stroke-width="2" stroke-linecap="round" stroke-linejoin="round" />
  <path d="M147.281 62.2333L152.515 57L157.748 62.2333" stroke="#31333F" stroke-width="2" stroke-linecap="round"
    stroke-linejoin="round" />
  <defs>
    <linearGradient id="paint0_linear_19_29" x1="112.523" y1="33" x2="0.5" y2="33" gradientUnits="userSpaceOnUse">
      <stop stop-color="#D1D3E3" />
      <stop offset="1" stop-color="#D1D3E3" stop-opacity="0" />
    </linearGradient>
    <linearGradient id="paint1_linear_19_29" x1="198.408" y1="33" x2="0.499999" y2="33" gradientUnits="userSpaceOnUse">
      <stop stop-color="#D1D3E3" />
      <stop offset="1" stop-color="#D1D3E3" stop-opacity="0" />
    </linearGradient>
    <clipPath id="clip0_19_29">
      <rect width="24" height="24.0002" fill="white" transform="translate(140.805 21.3027)" />
    </clipPath>
    <clipPath id="clip1_19_29">
      <rect x="200.5" y="41" width="16" height="16" rx="8" transform="rotate(-180 200.5 41)" fill="white" />
    </clipPath>
  </defs>
</svg>