<svg viewBox="0 0 213 83" fill="none" xmlns="http://www.w3.org/2000/svg">
<path d="M0.5 13H112.5C116.918 13 120.5 16.5817 120.5 21V45C120.5 49.4183 116.918 53 112.5 53H0.5" stroke="url(#paint0_linear_45_67)"/>
<path d="M0.5 1H200.5C207.127 1 212.5 6.37258 212.5 13V53C212.5 59.6274 207.127 65 200.5 65H0.5" stroke="url(#paint1_linear_45_67)"/>
<path d="M101.147 26.0907L103.315 30.3087L107.412 30.7066C107.893 30.7862 108.054 31.2637 107.733 31.5821L104.359 34.9247L105.645 39.461C105.725 39.859 105.323 40.3365 104.841 40.0977L100.665 37.9489L96.5685 40.0181C96.3276 40.1773 95.685 39.9385 95.8456 39.3814L97.1307 34.7655L93.677 31.5821C93.4361 31.2637 93.3558 30.7862 93.9983 30.7066L98.0946 30.3087L100.263 26.0907C100.504 25.6132 100.906 25.6928 101.147 26.0907Z" stroke="#72768E" stroke-width="1.6" stroke-linecap="round" stroke-linejoin="round"/>
<rect x="133" y="13.5" width="39" height="39" rx="7.5" fill="#ECFFF7" stroke="#058751"/>
<path d="M163.598 32.4929L163.597 32.4928C163.205 32.2664 162.76 32.1473 162.307 32.1475C161.798 32.1476 161.229 32.026 160.746 31.7358C160.248 31.4359 159.782 30.9093 159.722 30.1445L159.519 27.5349L159.516 27.4961V27.4571C159.516 27.2472 159.432 27.0459 159.284 26.8975C159.136 26.7491 158.934 26.6657 158.724 26.6657H158.671L158.617 26.66L156.444 26.4263C155.695 26.3457 155.192 25.8796 154.911 25.3806C154.642 24.9029 154.542 24.352 154.543 23.872C154.544 23.4181 154.425 22.9721 154.198 22.5789L163.598 32.4929ZM163.598 32.4929C163.99 32.7193 164.316 33.0449 164.543 33.4371C164.77 33.8292 164.889 34.2739 164.89 34.7266C164.889 35.1793 164.77 35.6241 164.543 36.0161C164.316 36.4083 163.99 36.734 163.597 36.9604L163.597 36.9605C163.205 37.1868 162.76 37.3059 162.307 37.3057C161.797 37.3056 161.228 37.427 160.745 37.7167C160.246 38.0159 159.779 38.5412 159.716 39.3054L159.519 41.7066L159.516 41.7474V41.7884C159.516 41.8883 159.497 41.9861 159.461 42.0773C159.424 42.1734 159.294 42.3256 158.985 42.4409C157.631 42.9465 154.744 43.2662 151.678 43.2843C148.612 43.3025 145.668 43.0171 144.197 42.4687C143.828 42.3313 143.683 42.1554 143.645 42.0482C143.618 41.969 143.603 41.8853 143.602 41.8L143.654 39.9814C143.657 39.8749 143.708 39.7319 143.896 39.5642C144.088 39.3917 144.373 39.2472 144.675 39.174L144.675 39.174C145.478 38.9797 146.236 38.5723 146.842 37.9672L146.842 37.9672C147.701 37.1077 148.184 35.9421 148.184 34.7266C148.184 33.5112 147.701 32.3455 146.842 31.4861L146.842 31.486M163.598 32.4929L146.842 31.486M144.437 26.6657H144.393C144.183 26.6657 143.982 26.7491 143.833 26.8975L143.833 26.8975C143.688 27.0434 143.604 27.2402 143.602 27.4462L143.657 29.4733C143.66 29.5792 143.71 29.7218 143.897 29.8895C144.09 30.0618 144.373 30.2063 144.675 30.2793L144.437 26.6657ZM144.437 26.6657L144.481 26.6618M144.437 26.6657L144.481 26.6618M144.481 26.6618L147.447 26.3995C148.196 26.3332 148.706 25.874 148.993 25.3817C149.269 24.9086 149.378 24.3578 149.377 23.872C149.376 23.4181 149.495 22.9721 149.722 22.5789L144.481 26.6618ZM146.842 31.486C146.236 30.8809 145.478 30.4736 144.675 30.2793L146.842 31.486ZM153.253 21.6318C153.645 21.859 153.972 22.1856 154.198 22.5788L153.253 21.6318ZM151.96 21.2852C152.414 21.2852 152.86 21.4047 153.253 21.6318L150.667 21.6318C151.06 21.4047 151.506 21.2852 151.96 21.2852ZM149.722 22.5788C149.948 22.1856 150.274 21.859 150.667 21.6319L149.722 22.5788Z" fill="#95D9BD" stroke="#058751" stroke-width="2"/>
<g clip-path="url(#clip0_45_67)">
<circle cx="193" cy="27.0312" r="2" transform="rotate(90 193 27.0312)" fill="#31333F"/>
<circle cx="193" cy="33.0312" r="2" transform="rotate(90 193 33.0312)" fill="#31333F"/>
<circle cx="193" cy="39.0312" r="2" transform="rotate(90 193 39.0312)" fill="#31333F"/>
</g>
<path d="M152.491 57C152.511 57.3922 152.491 58.3333 152.491 58.7267C152.533 70.9793 142.912 81.161 130.5 82" stroke="#31333F" stroke-width="2" stroke-linecap="round" stroke-linejoin="round"/>
<path d="M147.281 62.2333L152.515 57L157.748 62.2333" stroke="#31333F" stroke-width="2" stroke-linecap="round" stroke-linejoin="round"/>
<defs>
<linearGradient id="paint0_linear_45_67" x1="112.523" y1="33" x2="0.5" y2="33" gradientUnits="userSpaceOnUse">
<stop stop-color="#D1D3E3"/>
<stop offset="1" stop-color="#D1D3E3" stop-opacity="0"/>
</linearGradient>
<linearGradient id="paint1_linear_45_67" x1="198.408" y1="33" x2="0.499999" y2="33" gradientUnits="userSpaceOnUse">
<stop stop-color="#D1D3E3"/>
<stop offset="1" stop-color="#D1D3E3" stop-opacity="0"/>
</linearGradient>
<clipPath id="clip0_45_67">
<rect x="200.5" y="41" width="16" height="16" rx="8" transform="rotate(-180 200.5 41)" fill="white"/>
</clipPath>
</defs>
</svg>
