<svg viewBox="0 0 213 83" fill="none" xmlns="http://www.w3.org/2000/svg">
<path d="M0.5 13H112.5C116.918 13 120.5 16.5817 120.5 21V45C120.5 49.4183 116.918 53 112.5 53H0.5" stroke="url(#paint0_linear_686_198)"/>
<path d="M0.5 1H200.5C207.127 1 212.5 6.37258 212.5 13V53C212.5 59.6274 207.127 65 200.5 65H0.5" stroke="url(#paint1_linear_686_198)"/>
<path d="M101.147 26.0907L103.315 30.3087L107.412 30.7066C107.893 30.7862 108.054 31.2637 107.733 31.5821L104.359 34.9247L105.645 39.461C105.725 39.859 105.323 40.3365 104.841 40.0977L100.665 37.9489L96.5685 40.0181C96.3276 40.1773 95.685 39.9385 95.8456 39.3814L97.1307 34.7655L93.677 31.5821C93.4361 31.2637 93.3558 30.7862 93.9983 30.7066L98.0946 30.3087L100.263 26.0907C100.504 25.6132 100.906 25.6928 101.147 26.0907Z" stroke="#808292" stroke-width="1.6" stroke-linecap="round" stroke-linejoin="round"/>
<rect x="132.5" y="13" width="40" height="40" rx="8" fill="#2D4E41"/>
<path d="M164.89 34.7266C164.889 34.098 164.723 33.4806 164.409 32.9365C164.094 32.3923 163.642 31.9406 163.097 31.6266C162.552 31.3125 161.935 31.1473 161.306 31.1475C160.58 31.1476 159.776 30.7909 159.719 30.0667L159.516 27.4571C159.516 26.982 159.327 26.5264 158.991 26.1904C158.655 25.8545 158.199 25.6657 157.724 25.6657L155.551 25.4321C154.847 25.3563 154.542 24.5818 154.543 23.8735C154.544 23.244 154.379 22.6253 154.065 22.0797C153.75 21.5342 153.298 21.0811 152.753 20.7661C152.208 20.451 151.59 20.2852 150.96 20.2852C150.33 20.2852 149.712 20.451 149.167 20.7661C148.622 21.0811 148.17 21.5342 147.855 22.0797C147.541 22.6253 147.376 23.244 147.377 23.8735C147.378 24.5733 147.056 25.3417 146.359 25.4034L143.393 25.6657C142.918 25.6657 142.462 25.8545 142.126 26.1904C141.79 26.5264 141.602 26.982 141.602 27.4571L141.657 29.5007C141.682 30.4006 142.565 31.0395 143.44 31.2513C144.074 31.4047 144.666 31.7248 145.135 32.1932C145.806 32.8651 146.184 33.7764 146.184 34.7266C146.184 35.6769 145.806 36.5882 145.135 37.2601C144.666 37.7284 144.074 38.0486 143.44 38.202C142.564 38.4138 141.681 39.052 141.655 39.9525L141.602 41.7884C141.602 41.9905 141.636 42.189 141.701 42.3763C141.877 42.8839 142.344 43.2181 142.848 43.4057C146.162 44.6407 155.267 44.523 158.335 43.3777C158.794 43.2061 159.213 42.8992 159.392 42.4423C159.473 42.2359 159.516 42.0144 159.516 41.7884L159.713 39.3873C159.773 38.662 160.579 38.3055 161.306 38.3057C161.935 38.3059 162.552 38.1408 163.097 37.8267C163.642 37.5127 164.094 37.0609 164.409 36.5168C164.723 35.9726 164.889 35.3552 164.89 34.7266Z" stroke="#01B86C" stroke-width="2"/>
<g clip-path="url(#clip0_686_198)">
<circle cx="193" cy="27.0312" r="2" transform="rotate(90 193 27.0312)" fill="#808292"/>
<circle cx="193" cy="33.0312" r="2" transform="rotate(90 193 33.0312)" fill="#808292"/>
<circle cx="193" cy="39.0312" r="2" transform="rotate(90 193 39.0312)" fill="#808292"/>
</g>
<path d="M152.491 57C152.511 57.3922 152.491 58.3333 152.491 58.7267C152.533 70.9793 142.912 81.161 130.5 82" stroke="#808292" stroke-width="2" stroke-linecap="round" stroke-linejoin="round"/>
<path d="M147.281 62.2333L152.515 57L157.748 62.2333" stroke="#808292" stroke-width="2" stroke-linecap="round" stroke-linejoin="round"/>
<defs>
<linearGradient id="paint0_linear_686_198" x1="112.523" y1="33" x2="0.5" y2="33" gradientUnits="userSpaceOnUse">
<stop stop-color="#7F8191"/>
<stop offset="1" stop-color="#383838"/>
</linearGradient>
<linearGradient id="paint1_linear_686_198" x1="198.408" y1="33" x2="0.499999" y2="33" gradientUnits="userSpaceOnUse">
<stop stop-color="#7F8191"/>
<stop offset="1" stop-color="#383838"/>
</linearGradient>
<clipPath id="clip0_686_198">
<rect x="200.5" y="41" width="16" height="16" rx="8" transform="rotate(-180 200.5 41)" fill="white"/>
</clipPath>
</defs>
</svg>
