<svg xmlns="http://www.w3.org/2000/svg" xmlns:xlink="http://www.w3.org/1999/xlink" viewBox="0 0 214 87"
  enable-background="new 0 0 214 87" xml:space="preserve">
  <linearGradient id="a" gradientUnits="userSpaceOnUse" x1="112.523" y1="52.89" x2=".5" y2="52.89"
    gradientTransform="matrix(1 0 0 -1 0 87.89)">
    <stop offset="0" style="stop-color:#d1d3e3" />
    <stop offset="1" style="stop-color:#d1d3e3;stop-opacity:0" />
  </linearGradient>
  <path fill="none" stroke="url(#a)" d="M.5 15h112c4.4 0 8 3.6 8 8v24c0 4.4-3.6 8-8 8H.5" />
  <linearGradient id="b" gradientUnits="userSpaceOnUse" x1="198.408" y1="52.89" x2=".5" y2="52.89"
    gradientTransform="matrix(1 0 0 -1 0 87.89)">
    <stop offset="0" style="stop-color:#d1d3e3" />
    <stop offset="1" style="stop-color:#d1d3e3;stop-opacity:0" />
  </linearGradient>
  <path fill="none" stroke="url(#b)" d="M.5 3h200c6.6 0 12 5.4 12 12v40c0 6.6-5.4 12-12 12H.5" />
  <path fill="none" stroke="#72768E" stroke-width="1.6" stroke-linecap="round" stroke-linejoin="round"
    d="m101.1 28.1 2.2 4.2 4.1.4c.5.1.6.6.3.9l-3.4 3.3 1.3 4.5c.1.4-.3.9-.8.6l-4.2-2.1-4 2.1c-.2.2-.9-.1-.7-.6l1.3-4.6-3.5-3.2c-.2-.3-.3-.8.3-.9l4.1-.4 2.2-4.2c.2-.5.6-.4.8 0z" />
  <path fill="#E6EFF9" stroke="#235B95"
    d="M140.5 15.5h24c4.1 0 7.5 3.4 7.5 7.5v24c0 4.1-3.4 7.5-7.5 7.5h-24c-4.1 0-7.5-3.4-7.5-7.5V23c0-4.1 3.4-7.5 7.5-7.5z" />
  <path fill="#B6D7F8"
    d="M165.9 36.7c0-.6-.2-1.2-.5-1.8-.3-.5-.8-1-1.3-1.3-.5-.3-1.2-.5-1.8-.5-.7 0-1.5-.4-1.6-1.1l-.2-2.6c0-.5-.2-.9-.5-1.3-.3-.3-.8-.5-1.3-.5l-2.2-.2c-.7-.1-1-.9-1-1.6 0-.6-.2-1.2-.5-1.8-.3-.5-.8-1-1.3-1.3-.5-.3-1.2-.5-1.8-.5-.6 0-1.2.2-1.8.5-.5.3-1 .8-1.3 1.3-.3.5-.5 1.2-.5 1.8 0 .7-.3 1.5-1 1.5l-3 .3c-.5 0-.9.2-1.3.5-.3.3-.5.8-.5 1.3l.1 2c0 .9.9 1.5 1.8 1.8.6.2 1.2.5 1.7.9.7.7 1 1.6 1 2.5 0 1-.4 1.9-1 2.5-.5.5-1.1.8-1.7.9-.9.2-1.8.8-1.8 1.8l-.1 1.8c0 .2 0 .4.1.6.2.5.6.8 1.1 1 3.3 1.2 12.4 1.1 15.5 0 .5-.2.9-.5 1.1-.9.1-.2.1-.4.1-.7l.2-2.4c.1-.7.9-1.1 1.6-1.1.6 0 1.2-.2 1.8-.5.5-.3 1-.8 1.3-1.3.4-.3.6-.9.6-1.6z" />
  <defs>
    <filter id="c" filterUnits="userSpaceOnUse" x="140.6" y="20.3" width="27.3" height="28">
      <feColorMatrix values="1 0 0 0 0 0 1 0 0 0 0 0 1 0 0 0 0 0 1 0" />
    </filter>
  </defs>
  <mask maskUnits="userSpaceOnUse" x="140.6" y="20.3" width="27.3" height="28" id="d">
    <path fill="#FFF" filter="url(#c)"
      d="M165.9 36.7c0-.6-.2-1.2-.5-1.8-.3-.5-.8-1-1.3-1.3-.5-.3-1.2-.5-1.8-.5-.7 0-1.5-.4-1.6-1.1l-.2-2.6c0-.5-.2-.9-.5-1.3-.3-.3-.8-.5-1.3-.5l-2.2-.2c-.7-.1-1-.9-1-1.6 0-.6-.2-1.2-.5-1.8-.3-.5-.8-1-1.3-1.3-.5-.3-1.2-.5-1.8-.5-.6 0-1.2.2-1.8.5-.5.3-1 .8-1.3 1.3-.3.5-.5 1.2-.5 1.8 0 .7-.3 1.5-1 1.5l-3 .3c-.5 0-.9.2-1.3.5-.3.3-.5.8-.5 1.3l.1 2c0 .9.9 1.5 1.8 1.8.6.2 1.2.5 1.7.9.7.7 1 1.6 1 2.5 0 1-.4 1.9-1 2.5-.5.5-1.1.8-1.7.9-.9.2-1.8.8-1.8 1.8l-.1 1.8c0 .2 0 .4.1.6.2.5.6.8 1.1 1 3.3 1.2 12.4 1.1 15.5 0 .5-.2.9-.5 1.1-.9.1-.2.1-.4.1-.7l.2-2.4c.1-.7.9-1.1 1.6-1.1.6 0 1.2-.2 1.8-.5.5-.3 1-.8 1.3-1.3.4-.3.6-.9.6-1.6z" />
  </mask>
  <path mask="url(#d)" fill="none" stroke="#235B95" stroke-width="4"
    d="M165.9 36.7c0-.6-.2-1.2-.5-1.8-.3-.5-.8-1-1.3-1.3-.5-.3-1.2-.5-1.8-.5-.7 0-1.5-.4-1.6-1.1l-.2-2.6c0-.5-.2-.9-.5-1.3-.3-.3-.8-.5-1.3-.5l-2.2-.2c-.7-.1-1-.9-1-1.6 0-.6-.2-1.2-.5-1.8-.3-.5-.8-1-1.3-1.3-.5-.3-1.2-.5-1.8-.5-.6 0-1.2.2-1.8.5-.5.3-1 .8-1.3 1.3-.3.5-.5 1.2-.5 1.8 0 .7-.3 1.5-1 1.5l-3 .3c-.5 0-.9.2-1.3.5-.3.3-.5.8-.5 1.3l.1 2c0 .9.9 1.5 1.8 1.8.6.2 1.2.5 1.7.9.7.7 1 1.6 1 2.5 0 1-.4 1.9-1 2.5-.5.5-1.1.8-1.7.9-.9.2-1.8.8-1.8 1.8l-.1 1.8c0 .2 0 .4.1.6.2.5.6.8 1.1 1 3.3 1.2 12.4 1.1 15.5 0 .5-.2.9-.5 1.1-.9.1-.2.1-.4.1-.7l.2-2.4c.1-.7.9-1.1 1.6-1.1.6 0 1.2-.2 1.8-.5.5-.3 1-.8 1.3-1.3.4-.3.6-.9.6-1.6z" />
  <g>
    <defs>
      <path id="e" d="M192.5 43c-4.4 0-8-3.6-8-8s3.6-8 8-8 8 3.6 8 8-3.6 8-8 8z" />
    </defs>
    <clipPath id="f">
      <use xlink:href="#e" overflow="visible" />
    </clipPath>
    <g fill="#31333F" clip-path="url(#f)">
      <circle cx="193" cy="29" r="2" />
      <circle cx="193" cy="35" r="2" />
      <circle cx="193" cy="41" r="2" />
    </g>
  </g>
  <g>
    <g fill="none" stroke="#31333F" stroke-width="2" stroke-linecap="round" stroke-linejoin="round">
      <path d="M152.5 59v1.7c0 12.3-9.6 22.4-22 23.3" />
      <path d="m147.3 64.2 5.2-5.2 5.2 5.2" />
    </g>
  </g>
</svg>