<svg viewBox="0 0 888 139" fill="none" xmlns="http://www.w3.org/2000/svg">
  <path
    d="M69.4138 31.1198C90.5617 31.1198 107.706 48.2607 107.706 69.4043C107.706 73.6895 107 76.8681 105.704 80.0232C104.621 82.6603 101.018 82.7544 99.4872 80.3528L69.4844 33.4978L39.3168 80.2822C37.7625 82.6603 34.1829 82.5661 33.0996 79.929C31.8044 76.7975 31.1214 73.666 31.1214 69.4043C31.1214 48.2607 48.2658 31.1198 69.4138 31.1198Z"
    fill="#058751" />
  <path fill-rule="evenodd" clip-rule="evenodd"
    d="M10.1654 10.1654C0 20.3308 0 36.6918 0 69.4138C0 102.136 0 118.497 10.1654 128.662C20.3308 138.828 36.6918 138.828 69.4138 138.828C102.136 138.828 118.497 138.828 128.662 128.662C138.828 118.497 138.828 102.136 138.828 69.4138C138.828 36.6918 138.828 20.3308 128.662 10.1654C118.497 0 102.136 0 69.4138 0C36.6918 0 20.3308 0 10.1654 10.1654ZM69.4138 23.1379C43.862 23.1379 23.1379 43.8577 23.1379 69.4043C23.1379 77.3861 25.1632 84.8971 28.7193 91.4662C31.2627 96.1046 37.5035 96.2459 41.1537 92.408L69.4844 62.5526L97.6268 92.4315C101.253 96.2929 107.518 96.1752 110.061 91.5133C113.664 84.9441 115.69 77.4097 115.69 69.4043C115.69 43.8577 94.9656 23.1379 69.4138 23.1379ZM69.4875 75.2478L60.4207 84.5482H78.4365L69.4875 75.2478ZM40.5688 105.612C48.4817 111.922 58.514 115.69 69.4177 115.69C80.3213 115.69 90.3537 111.922 98.2665 105.612L84.9136 91.4381H53.9217L40.5688 105.612Z"
    fill="#058751" />
  <path
    d="M237.381 101.807L233.982 92.3348H205.349L201.951 101.807H185.104L208.241 41.0698H231.09L254.228 101.807H237.381ZM209.688 80.1151H229.644L221.184 56.3987H218.22L209.688 80.1151Z"
    fill="#2B2B2B" />
  <path fill-rule="evenodd" clip-rule="evenodd"
    d="M322.845 101.807H306.723L297.394 84.5258H279.247V101.807H262.904V41.0698H295.804C312.216 41.0698 321.184 48.5172 321.184 63.2679C321.184 71.6551 317.207 77.7291 311.349 81.1997L322.845 101.807ZM278.812 54.3741V71.7275H293.524C299.752 71.7275 303.108 68.7156 303.108 63.0508C303.108 57.386 299.752 54.3741 293.524 54.3741H278.812Z"
    fill="#2B2B2B" />
  <path
    d="M377.291 101.807H394.139L367.819 68.04L392.91 41.0698H374.616L348.875 68.4738H347.791V41.0698H331.522V101.807H347.791V88.0687L357.552 77.8736H358.636L377.291 101.807Z"
    fill="#2B2B2B" />
  <path
    d="M436.365 101.807C416.481 101.807 402.815 89.4019 402.815 71.4384C402.815 53.407 416.481 41.0698 436.365 41.0698C450.248 41.0698 464.348 46.7639 467.023 64.3885H451.477C449.163 57.4065 443.596 54.2883 436.365 54.2883C426.532 54.2883 419.012 61.2703 419.012 71.4384C419.012 81.6064 426.532 88.5884 436.365 88.5884C443.596 88.5884 449.163 85.4025 451.477 78.3526H467.023C464.348 96.045 450.32 101.807 436.365 101.807Z"
    fill="#058751" />
  <path fill-rule="evenodd" clip-rule="evenodd"
    d="M509.467 101.807C489.221 101.807 475.7 89.4019 475.7 71.4384C475.7 53.407 489.221 41.0698 509.467 41.0698C529.64 41.0698 543.162 53.407 543.162 71.4384C543.162 89.4019 529.64 101.807 509.467 101.807ZM509.251 88.9274C519.085 88.9274 526.822 82.2165 526.822 71.7773C526.822 61.2703 519.085 54.6272 509.251 54.6272C499.345 54.6272 491.681 61.2703 491.681 71.7773C491.681 82.2165 499.345 88.9274 509.251 88.9274Z"
    fill="#058751" />
  <path
    d="M551.839 41.0698V101.807H567.746V63.6293H569.265L595.15 101.807H613.588V41.0698H597.681V79.2474H596.235L570.711 41.0698H551.839Z"
    fill="#058751" />
  <path
    d="M622.264 41.0698V101.807H638.171V63.6293H639.69L665.575 101.807H684.013V41.0698H668.106V79.2474H666.66L641.136 41.0698H622.264Z"
    fill="#058751" />
  <path
    d="M692.69 41.0698V101.807H745.04V88.5749H709.032V77.0782H743.739V65.7262H709.032V54.3018H745.04V41.0698H692.69Z"
    fill="#058751" />
  <path
    d="M753.717 69.4137C753.717 88.5748 767.386 101.807 787.267 101.807C801.225 101.807 815.252 95.6608 817.925 76.7889H802.382C800.068 84.3088 794.497 87.7072 787.267 87.7072C777.433 87.7072 769.913 80.2596 769.913 69.4137C769.913 58.5678 777.433 51.1203 787.267 51.1203C794.497 51.1203 800.068 54.4464 802.382 61.8939H817.925C815.252 43.0943 801.15 37.0206 787.267 37.0206C767.386 37.0206 753.717 50.1803 753.717 69.4137Z"
    fill="#058751" />
  <path d="M887.848 54.6634V41.0698H826.602V54.6634H849.092V101.807H865.358V54.6634H887.848Z" fill="#058751" />
</svg>