<svg width="194" height="24" viewBox="0 0 194 24" fill="none" xmlns="http://www.w3.org/2000/svg">
  <g clip-path="url(#clip0_862_1400)">
    <path fill-rule="evenodd" clip-rule="evenodd"
      d="M0 12C0 5.37405 5.37405 0 12 0C18.626 0 24 5.37405 24 12C24 14.0763 23.4748 16.0305 22.5405 17.7344C21.8809 18.9435 20.2565 18.974 19.316 17.9725L12.0183 10.2229L4.67176 17.9664C3.72519 18.9618 2.10687 18.9252 1.44733 17.7221C0.525191 16.0183 0 14.0702 0 12ZM21.9298 12C21.9298 6.51603 17.484 2.07023 12 2.07023C6.51603 2.07023 2.07023 6.51603 2.07023 12C2.07023 13.1053 2.24733 13.9176 2.58321 14.7298C2.86412 15.4137 3.79237 15.4382 4.19542 14.8214L12.0183 2.68702L19.7985 14.8397C20.1954 15.4626 21.1298 15.4382 21.4107 14.7542C21.7466 13.9359 21.9298 13.1115 21.9298 12Z"
      fill="#235B95" />
    <path fill-rule="evenodd" clip-rule="evenodd" d="M9.66699 15.9266L12.0181 13.5144L14.3387 15.9266H9.66699Z"
      fill="#235B95" />
    <path
      d="M4.51855 21.3863C6.57046 23.0229 9.17199 24 11.9995 24C14.827 24 17.4285 23.0229 19.4804 21.3863L16.0178 17.71H7.98115L4.51855 21.3863Z"
      fill="#235B95" />
  </g>
  <path
    d="M44.05 19.4668L43.2667 17.2835H36.6667L35.8833 19.4668H32L37.3333 5.4668H42.6L47.9333 19.4668H44.05ZM37.6667 14.4668H42.2667L40.3167 9.00013H39.6333L37.6667 14.4668Z"
    fill="#003420" />
  <path fill-rule="evenodd" clip-rule="evenodd"
    d="M63.749 19.4666H60.0329L57.8825 15.4832H53.6995V19.4666H49.9326V5.46655H57.516C61.2992 5.46655 63.3662 7.18319 63.3662 10.5833C63.3662 12.5165 62.4495 13.9166 61.0993 14.7166L63.749 19.4666ZM53.5993 8.5332V12.5332H56.9906C58.4261 12.5332 59.1995 11.8389 59.1995 10.5332C59.1995 9.22746 58.4261 8.5332 56.9906 8.5332H53.5993Z"
    fill="#003420" />
  <path
    d="M76.3 19.4666H80.1833L74.1167 11.6832L79.9 5.46655H75.6833L69.75 11.7832H69.5V5.46655H65.75V19.4666H69.5V16.2999L71.75 13.9499H72L76.3 19.4666Z"
    fill="#003420" />
  <path
    d="M89.916 19.4668C85.3326 19.4668 82.1826 16.6074 82.1826 12.4668C82.1826 8.31055 85.3326 5.4668 89.916 5.4668C93.116 5.4668 96.366 6.7793 96.9826 10.8418H93.3993C92.866 9.23242 91.5826 8.51367 89.916 8.51367C87.6493 8.51367 85.916 10.123 85.916 12.4668C85.916 14.8105 87.6493 16.4199 89.916 16.4199C91.5826 16.4199 92.866 15.6855 93.3993 14.0605H96.9826C96.366 18.1387 93.1326 19.4668 89.916 19.4668Z"
    fill="#235B95" />
  <path fill-rule="evenodd" clip-rule="evenodd"
    d="M106.766 19.4666C102.099 19.4666 98.9824 16.6072 98.9824 12.4666C98.9824 8.3103 102.099 5.46655 106.766 5.46655C111.416 5.46655 114.532 8.3103 114.532 12.4666C114.532 16.6072 111.416 19.4666 106.766 19.4666ZM106.716 16.4978C108.983 16.4978 110.766 14.9509 110.766 12.5447C110.766 10.1228 108.983 8.59155 106.716 8.59155C104.433 8.59155 102.666 10.1228 102.666 12.5447C102.666 14.9509 104.433 16.4978 106.716 16.4978Z"
    fill="#235B95" />
  <path
    d="M116.533 5.4668V19.4668H120.2V10.6668H120.55L126.517 19.4668H130.767V5.4668H127.1V14.2668H126.767L120.883 5.4668H116.533Z"
    fill="#235B95" />
  <path
    d="M132.767 5.4668V19.4668H136.433V10.6668H136.783L142.75 19.4668H147V5.4668H143.333V14.2668H143L137.117 5.4668H132.767Z"
    fill="#235B95" />
  <path d="M149 5.46655V19.4666H161.067V16.4166H152.767V13.7666H160.767V11.1499H152.767V8.51655H161.067V5.46655H149Z"
    fill="#235B95" />
  <path
    d="M163.066 12.0001C163.066 16.4168 166.217 19.4668 170.8 19.4668C174.017 19.4668 177.25 18.0501 177.866 13.7001H174.284C173.75 15.4334 172.466 16.2168 170.8 16.2168C168.533 16.2168 166.8 14.5001 166.8 12.0001C166.8 9.50011 168.533 7.78345 170.8 7.78345C172.466 7.78345 173.75 8.55011 174.284 10.2668H177.866C177.25 5.93345 174 4.53345 170.8 4.53345C166.217 4.53345 163.066 7.56678 163.066 12.0001Z"
    fill="#235B95" />
  <path d="M193.984 8.60013V5.4668H179.866V8.60013H185.05V19.4668H188.8V8.60013H193.984Z" fill="#235B95" />
  <defs>
    <clipPath id="clip0_862_1400">
      <rect width="24" height="24" fill="white" />
    </clipPath>
  </defs>
</svg>