<svg viewBox="0 0 889 139" fill="none" xmlns="http://www.w3.org/2000/svg">
<path d="M69.99 31.206C91.1379 31.206 108.282 48.3469 108.282 69.4905C108.282 73.7757 107.576 76.9543 106.281 80.1094C105.197 82.7465 101.594 82.8406 100.063 80.439L70.0606 33.584L39.893 80.3684C38.3387 82.7465 34.7591 82.6523 33.6758 80.0152C32.3805 76.8837 31.6976 73.7522 31.6976 69.4905C31.6976 48.3469 48.842 31.206 69.99 31.206Z" fill="#058751"/>
<path fill-rule="evenodd" clip-rule="evenodd" d="M10.7416 10.2516C0.576172 20.417 0.576172 36.778 0.576172 69.5C0.576172 102.222 0.576172 118.583 10.7416 128.748C20.907 138.914 37.268 138.914 69.99 138.914C102.712 138.914 119.073 138.914 129.238 128.748C139.404 118.583 139.404 102.222 139.404 69.5C139.404 36.778 139.404 20.417 129.238 10.2516C119.073 0.0862122 102.712 0.0862122 69.99 0.0862122C37.268 0.0862122 20.907 0.0862122 10.7416 10.2516ZM69.99 23.2241C44.4382 23.2241 23.7141 43.9439 23.7141 69.4905C23.7141 77.4723 25.7394 84.9833 29.2955 91.5524C31.8389 96.1908 38.0796 96.3321 41.7299 92.4942L70.0606 62.6388L98.2029 92.5177C101.83 96.3792 108.094 96.2614 110.637 91.5995C114.241 85.0304 116.266 77.4959 116.266 69.4905C116.266 43.9439 95.5418 23.2241 69.99 23.2241ZM70.0637 75.3341L60.9969 84.6344H79.0127L70.0637 75.3341ZM41.145 105.699C49.0578 112.009 59.0902 115.776 69.9938 115.776C80.8975 115.776 90.9298 112.009 98.8427 105.699L85.4898 91.5243H54.4979L41.145 105.699Z" fill="#058751"/>
<path d="M237.957 101.893L234.559 92.421H205.925L202.527 101.893H185.68L208.818 41.1561H231.666L254.804 101.893H237.957ZM210.264 80.2013H230.22L221.76 56.4849H218.796L210.264 80.2013Z" fill="#2B2B2B"/>
<path fill-rule="evenodd" clip-rule="evenodd" d="M323.421 101.893H307.299L297.97 84.6121H279.823V101.893H263.48V41.1561H296.38C312.793 41.1561 321.76 48.6034 321.76 63.3542C321.76 71.7414 317.783 77.8154 311.926 81.2859L323.421 101.893ZM279.388 54.4603V71.8138H294.1C300.328 71.8138 303.684 68.8018 303.684 63.137C303.684 57.4722 300.328 54.4603 294.1 54.4603H279.388Z" fill="#2B2B2B"/>
<path d="M377.867 101.893H394.715L368.395 68.1262L393.485 41.1561H375.192L349.451 68.5601H348.367V41.1561H332.098V101.893H348.367V88.155L358.128 77.9598H359.212L377.867 101.893Z" fill="#2B2B2B"/>
<path d="M436.941 101.893C417.057 101.893 403.391 89.4881 403.391 71.5246C403.391 53.4933 417.057 41.1561 436.941 41.1561C450.824 41.1561 464.924 46.8502 467.599 64.4748H452.053C449.74 57.4927 444.172 54.3745 436.941 54.3745C427.108 54.3745 419.588 61.3566 419.588 71.5246C419.588 81.6926 427.108 88.6747 436.941 88.6747C444.172 88.6747 449.74 85.4887 452.053 78.4389H467.599C464.924 96.1312 450.896 101.893 436.941 101.893Z" fill="#058751"/>
<path fill-rule="evenodd" clip-rule="evenodd" d="M510.043 101.893C489.798 101.893 476.276 89.4881 476.276 71.5246C476.276 53.4933 489.798 41.1561 510.043 41.1561C530.217 41.1561 543.738 53.4933 543.738 71.5246C543.738 89.4881 530.217 101.893 510.043 101.893ZM509.827 89.0136C519.661 89.0136 527.398 82.3027 527.398 71.8635C527.398 61.3566 519.661 54.7134 509.827 54.7134C499.922 54.7134 492.257 61.3566 492.257 71.8635C492.257 82.3027 499.922 89.0136 509.827 89.0136Z" fill="#058751"/>
<path d="M552.415 41.1561V101.893H568.323V63.7155H569.841L595.727 101.893H614.165V41.1561H598.257V79.3337H596.811L571.287 41.1561H552.415Z" fill="#058751"/>
<path d="M622.84 41.1561V101.893H638.747V63.7155H640.266L666.151 101.893H684.589V41.1561H668.682V79.3337H667.236L641.712 41.1561H622.84Z" fill="#058751"/>
<path d="M693.267 41.1561V101.893H745.616V88.6611H709.608V77.1645H744.315V65.8124H709.608V54.3881H745.616V41.1561H693.267Z" fill="#058751"/>
<path d="M754.293 69.5C754.293 88.6611 767.962 101.893 787.843 101.893C801.801 101.893 815.828 95.747 818.501 76.8752H802.958C800.644 84.395 795.074 87.7934 787.843 87.7934C778.009 87.7934 770.489 80.3459 770.489 69.5C770.489 58.6541 778.009 51.2065 787.843 51.2065C795.074 51.2065 800.644 54.5326 802.958 61.9801H818.501C815.828 43.1806 801.726 37.1069 787.843 37.1069C767.962 37.1069 754.293 50.2666 754.293 69.5Z" fill="#058751"/>
<path d="M888.424 54.7496V41.1561H827.178V54.7496H849.668V101.893H865.934V54.7496H888.424Z" fill="#058751"/>
</svg>
