<svg width="194" height="24" viewBox="0 0 194 24" fill="none" xmlns="http://www.w3.org/2000/svg">
<g clip-path="url(#clip0_93_70)">
<path fill-rule="evenodd" clip-rule="evenodd" d="M0 12C0 5.37405 5.37405 0 12 0C18.626 0 24 5.37405 24 12C24 14.0763 23.4748 16.0305 22.5405 17.7344C21.8809 18.9435 20.2565 18.974 19.316 17.9725L12.0183 10.2229L4.67176 17.9664C3.72519 18.9618 2.10687 18.9252 1.44733 17.7221C0.525191 16.0183 0 14.0702 0 12ZM21.9298 12C21.9298 6.51603 17.484 2.07023 12 2.07023C6.51603 2.07023 2.07023 6.51603 2.07023 12C2.07023 13.1053 2.24733 13.9176 2.58321 14.7298C2.86412 15.4137 3.79237 15.4382 4.19542 14.8214L12.0183 2.68702L19.7985 14.8397C20.1954 15.4626 21.1298 15.4382 21.4107 14.7542C21.7466 13.9359 21.9298 13.1115 21.9298 12Z" fill="#058751"/>
<path fill-rule="evenodd" clip-rule="evenodd" d="M9.66699 15.9269L12.0181 13.5146L14.3387 15.9269H9.66699Z" fill="#058751"/>
<path d="M4.51855 21.3863C6.57046 23.0229 9.17199 24 11.9995 24C14.827 24 17.4285 23.0229 19.4804 21.3863L16.0178 17.71H7.98115L4.51855 21.3863Z" fill="#058751"/>
</g>
<path d="M44.05 19.4663L43.2667 17.283H36.6667L35.8833 19.4663H32L37.3333 5.46631H42.6L47.9333 19.4663H44.05ZM37.6667 14.4663H42.2667L40.3167 8.99964H39.6333L37.6667 14.4663Z" fill="#003420"/>
<path fill-rule="evenodd" clip-rule="evenodd" d="M63.749 19.4663H60.0329L57.8825 15.483H53.6995V19.4663H49.9326V5.46631H57.516C61.2992 5.46631 63.3662 7.18294 63.3662 10.583C63.3662 12.5163 62.4495 13.9163 61.0993 14.7163L63.749 19.4663ZM53.5993 8.53296V12.533H56.9906C58.4261 12.533 59.1995 11.8387 59.1995 10.533C59.1995 9.22721 58.4261 8.53296 56.9906 8.53296H53.5993Z" fill="#003420"/>
<path d="M76.3 19.4663H80.1833L74.1167 11.683L79.9 5.46631H75.6833L69.75 11.783H69.5V5.46631H65.75V19.4663H69.5V16.2996L71.75 13.9496H72L76.3 19.4663Z" fill="#003420"/>
<path d="M89.916 19.4663C85.3326 19.4663 82.1826 16.6069 82.1826 12.4663C82.1826 8.31006 85.3326 5.46631 89.916 5.46631C93.116 5.46631 96.366 6.77881 96.9826 10.8413H93.3993C92.866 9.23193 91.5826 8.51318 89.916 8.51318C87.6493 8.51318 85.916 10.1226 85.916 12.4663C85.916 14.8101 87.6493 16.4194 89.916 16.4194C91.5826 16.4194 92.866 15.6851 93.3993 14.0601H96.9826C96.366 18.1382 93.1326 19.4663 89.916 19.4663Z" fill="#058751"/>
<path fill-rule="evenodd" clip-rule="evenodd" d="M106.766 19.4663C102.099 19.4663 98.9824 16.6069 98.9824 12.4663C98.9824 8.31006 102.099 5.46631 106.766 5.46631C111.416 5.46631 114.532 8.31006 114.532 12.4663C114.532 16.6069 111.416 19.4663 106.766 19.4663ZM106.716 16.4976C108.983 16.4976 110.766 14.9507 110.766 12.5444C110.766 10.1226 108.983 8.59131 106.716 8.59131C104.433 8.59131 102.666 10.1226 102.666 12.5444C102.666 14.9507 104.433 16.4976 106.716 16.4976Z" fill="#058751"/>
<path d="M116.533 5.46631V19.4663H120.2V10.6663H120.55L126.517 19.4663H130.767V5.46631H127.1V14.2663H126.767L120.883 5.46631H116.533Z" fill="#058751"/>
<path d="M132.767 5.46631V19.4663H136.433V10.6663H136.783L142.75 19.4663H147V5.46631H143.333V14.2663H143L137.117 5.46631H132.767Z" fill="#058751"/>
<path d="M149 5.46631V19.4663H161.067V16.4163H152.767V13.7663H160.767V11.1496H152.767V8.51631H161.067V5.46631H149Z" fill="#058751"/>
<path d="M163.066 11.9999C163.066 16.4165 166.217 19.4665 170.8 19.4665C174.017 19.4665 177.25 18.0499 177.866 13.6999H174.284C173.75 15.4332 172.466 16.2165 170.8 16.2165C168.533 16.2165 166.8 14.4999 166.8 11.9999C166.8 9.49987 168.533 7.7832 170.8 7.7832C172.466 7.7832 173.75 8.54987 174.284 10.2665H177.866C177.25 5.9332 174 4.5332 170.8 4.5332C166.217 4.5332 163.066 7.56654 163.066 11.9999Z" fill="#058751"/>
<path d="M193.984 8.59964V5.46631H179.866V8.59964H185.05V19.4663H188.8V8.59964H193.984Z" fill="#058751"/>
<defs>
<clipPath id="clip0_93_70">
<rect width="24" height="24" fill="white"/>
</clipPath>
</defs>
</svg>
