<svg viewBox="0 0 895 141" fill="none" xmlns="http://www.w3.org/2000/svg">
<path d="M70.7573 31.9777C92.0313 31.9777 109.278 49.2208 109.278 70.4904C109.278 74.8012 108.567 77.9988 107.264 81.1726C106.174 83.8254 102.55 83.9202 101.01 81.5042L70.8283 34.3699L40.4809 81.4332C38.9173 83.8254 35.3164 83.7307 34.2266 81.0779C32.9236 77.9277 32.2366 74.7775 32.2366 70.4904C32.2366 49.2208 49.4833 31.9777 70.7573 31.9777Z" fill="#01B86C"/>
<path fill-rule="evenodd" clip-rule="evenodd" d="M11.1557 10.8984C0.929688 21.1244 0.929688 37.583 0.929688 70.5C0.929688 103.417 0.929688 119.876 11.1557 130.102C21.3817 140.328 37.8402 140.328 70.7573 140.328C103.674 140.328 120.133 140.328 130.359 130.102C140.585 119.876 140.585 103.417 140.585 70.5C140.585 37.583 140.585 21.1244 130.359 10.8984C120.133 0.672409 103.674 0.672409 70.7573 0.672409C37.8402 0.672409 21.3817 0.672409 11.1557 10.8984ZM70.7573 23.9483C45.0531 23.9483 24.2055 44.7916 24.2055 70.4904C24.2055 78.5199 26.2429 86.0756 29.8202 92.6838C32.3788 97.3499 38.6567 97.492 42.3287 93.6313L70.8283 63.5979L99.1384 93.6549C102.787 97.5394 109.088 97.421 111.647 92.7312C115.272 86.1229 117.309 78.5435 117.309 70.4904C117.309 44.7916 96.4614 23.9483 70.7573 23.9483ZM70.8314 76.3688L61.7106 85.7246H79.8338L70.8314 76.3688ZM41.7404 106.914C49.7004 113.262 59.7925 117.052 70.7612 117.052C81.7299 117.052 91.822 113.262 99.782 106.914L86.3495 92.6556H55.1729L41.7404 106.914Z" fill="#01B86C"/>
<path d="M239.726 103.086L236.307 93.5576H207.503L204.084 103.086H187.137L210.413 41.987H233.397L256.673 103.086H239.726ZM211.867 81.265H231.943L223.433 57.4073H220.45L211.867 81.265Z" fill="white"/>
<path fill-rule="evenodd" clip-rule="evenodd" d="M325.699 103.086H309.481L300.096 85.702H281.841V103.086H265.401V41.987H298.497C315.007 41.987 324.029 49.4788 324.029 64.3174C324.029 72.7546 320.028 78.8648 314.135 82.3561L325.699 103.086ZM281.404 55.3705V72.8274H296.204C302.469 72.8274 305.844 69.7976 305.844 64.099C305.844 58.4004 302.469 55.3705 296.204 55.3705H281.404Z" fill="white"/>
<path d="M380.47 103.086H397.418L370.942 69.1179L396.182 41.987H377.779L351.885 69.5543H350.794V41.987H334.428V103.086H350.794V89.2661L360.613 79.0102H361.704L380.47 103.086Z" fill="white"/>
<path d="M439.896 103.086C419.894 103.086 406.146 90.6072 406.146 72.5366C406.146 54.3978 419.894 41.987 439.896 41.987C453.862 41.987 468.045 47.715 470.737 65.4447H455.098C452.771 58.421 447.17 55.2842 439.896 55.2842C430.004 55.2842 422.439 62.3079 422.439 72.5366C422.439 82.7652 430.004 89.7889 439.896 89.7889C447.17 89.7889 452.771 86.5839 455.098 79.492H470.737C468.045 97.2899 453.935 103.086 439.896 103.086Z" fill="#01B86C"/>
<path fill-rule="evenodd" clip-rule="evenodd" d="M513.433 103.086C493.068 103.086 479.466 90.6072 479.466 72.5366C479.466 54.3978 493.068 41.987 513.433 41.987C533.728 41.987 547.33 54.3978 547.33 72.5366C547.33 90.6072 533.728 103.086 513.433 103.086ZM513.216 90.1298C523.109 90.1298 530.892 83.3789 530.892 72.8775C530.892 62.3079 523.109 55.6252 513.216 55.6252C503.252 55.6252 495.542 62.3079 495.542 72.8775C495.542 83.3789 503.252 90.1298 513.216 90.1298Z" fill="#01B86C"/>
<path d="M556.059 41.987V103.086H572.061V64.681H573.588L599.628 103.086H618.176V41.987H602.174V80.3922H600.719L575.043 41.987H556.059Z" fill="#01B86C"/>
<path d="M626.903 41.987V103.086H642.905V64.681H644.433L670.473 103.086H689.021V41.987H673.019V80.3922H671.564L645.888 41.987H626.903Z" fill="#01B86C"/>
<path d="M697.75 41.987V103.086H750.411V89.7752H714.188V78.2101H749.102V66.7903H714.188V55.2979H750.411V41.987H697.75Z" fill="#01B86C"/>
<path d="M759.14 70.5C759.14 89.7753 772.89 103.086 792.89 103.086C806.931 103.086 821.042 96.9035 823.73 77.9191H808.095C805.767 85.4838 800.163 88.9024 792.89 88.9024C782.997 88.9024 775.433 81.4105 775.433 70.5C775.433 59.5894 782.997 52.0975 792.89 52.0975C800.163 52.0975 805.767 55.4434 808.095 62.9353H823.73C821.042 44.0237 806.855 37.9138 792.89 37.9138C772.89 37.9138 759.14 51.1519 759.14 70.5Z" fill="#01B86C"/>
<path d="M894.071 55.6616V41.987H832.459V55.6616H855.084V103.086H871.447V55.6616H894.071Z" fill="#01B86C"/>
</svg>
