<svg viewBox="0 0 18 18" fill="none" xmlns="http://www.w3.org/2000/svg">
<path d="M2.7002 6.8248C2.7002 5.98473 2.7002 5.56469 2.85279 5.24382C2.98701 4.96158 3.20118 4.73211 3.46461 4.58829C3.76409 4.4248 4.15612 4.4248 4.9402 4.4248H10.6102C11.3943 4.4248 11.7863 4.4248 12.0858 4.58829C12.3492 4.73211 12.5634 4.96158 12.6976 5.24382C12.8502 5.56469 12.8502 5.98473 12.8502 6.8248V12.8998C12.8502 13.7399 12.8502 14.1599 12.6976 14.4808C12.5634 14.763 12.3492 14.9925 12.0858 15.1363C11.7863 15.2998 11.3943 15.2998 10.6102 15.2998H4.9402C4.15612 15.2998 3.76409 15.2998 3.46461 15.1363C3.20118 14.9925 2.98701 14.763 2.85279 14.4808C2.7002 14.1599 2.7002 13.7399 2.7002 12.8998V6.8248Z" stroke="currentColor" stroke-width="1.5" stroke-linecap="round" stroke-linejoin="round"/>
<path d="M7 1H11.97C13.5381 1 14.3222 1 14.9212 1.32698C15.448 1.6146 15.8764 2.07354 16.1448 2.63803C16.45 3.27976 16.45 4.11984 16.45 5.8V11.125" stroke="currentColor" stroke-width="1.5" stroke-linecap="round" stroke-linejoin="round"/>
</svg>
