<svg viewBox="0 0 16 16" fill="none" xmlns="http://www.w3.org/2000/svg">
<g clip-path="url(#clip0_45_84)">
<path fill-rule="evenodd" clip-rule="evenodd" d="M0 8C0 3.5827 3.5827 0 8 0C12.4173 0 16 3.5827 16 8C16 9.38422 15.6499 10.687 15.027 11.8229C14.5873 12.629 13.5043 12.6494 12.8774 11.9817L8.01221 6.81527L3.1145 11.9776C2.48346 12.6412 1.40458 12.6168 0.964886 11.8148C0.350127 10.6789 0 9.38015 0 8ZM14.6198 8C14.6198 4.34402 11.656 1.38015 8 1.38015C4.34402 1.38015 1.38015 4.34402 1.38015 8C1.38015 8.7369 1.49822 9.27837 1.72214 9.81985C1.90941 10.2758 2.52824 10.2921 2.79695 9.88092L8.01221 1.79135L13.199 9.89313C13.4636 10.3084 14.0865 10.2921 14.2738 9.83613C14.4977 9.29059 14.6198 8.74097 14.6198 8Z" fill="currentColor"/>
<path fill-rule="evenodd" clip-rule="evenodd" d="M6.44482 10.6179L8.01225 9.00977L9.55933 10.6179H6.44482Z" fill="currentColor"/>
<path d="M3.0127 14.2575C4.38063 15.3486 6.11499 16 7.99997 16C9.88496 16 11.6193 15.3486 12.9872 14.2575L10.6789 11.8066H5.32109L3.0127 14.2575Z" fill="currentColor"/>
</g>
<defs>
<clipPath id="clip0_45_84">
<rect width="16" height="16" fill="currentColor"/>
</clipPath>
</defs>
</svg>
