<?xml version="1.0" standalone="no"?>
<!DOCTYPE svg PUBLIC "-//W3C//DTD SVG 20010904//EN"
 "http://www.w3.org/TR/2001/REC-SVG-20010904/DTD/svg10.dtd">
<svg version="1.0" xmlns="http://www.w3.org/2000/svg"
 width="512.000000pt" height="512.000000pt" viewBox="0 0 512.000000 512.000000"
 preserveAspectRatio="xMidYMid meet">
<metadata>
Created by potrace 1.14, written by Peter Selinger 2001-2017
</metadata>
<g transform="translate(0.000000,512.000000) scale(0.100000,-0.100000)"
fill="#000000" stroke="none">
<path d="M2398 4555 c-2 -1 -30 -5 -63 -8 -219 -22 -453 -91 -669 -199 -94
-46 -239 -135 -298 -182 -14 -11 -41 -32 -59 -46 -146 -111 -355 -346 -444
-498 -5 -9 -17 -28 -26 -42 -17 -25 -103 -191 -104 -200 -1 -3 -8 -21 -16 -40
-59 -135 -103 -288 -135 -465 -25 -142 -25 -479 0 -625 36 -214 93 -393 178
-565 61 -124 96 -165 174 -204 53 -27 67 -30 144 -28 67 2 97 8 142 29 68 32
88 51 538 527 80 85 165 175 190 201 25 25 110 116 190 200 342 362 419 440
429 440 5 0 11 -4 13 -9 2 -5 58 -67 124 -138 67 -70 141 -148 164 -173 48
-52 268 -285 320 -340 19 -20 94 -99 165 -175 471 -500 466 -495 524 -524 70
-35 110 -45 185 -43 64 2 142 33 186 74 102 93 230 410 281 698 27 149 33 450
13 595 -35 252 -115 500 -221 688 -18 33 -33 61 -33 63 0 15 -155 231 -210
294 -232 266 -505 456 -825 575 -143 53 -268 84 -455 112 -38 5 -396 13 -402
8z m347 -350 c22 -3 54 -8 72 -11 73 -10 182 -36 267 -65 95 -31 319 -135 324
-150 2 -5 8 -9 13 -9 7 0 125 -76 139 -90 3 -3 32 -27 65 -55 373 -311 590
-778 588 -1270 -1 -141 -9 -204 -44 -335 -45 -169 -111 -229 -218 -200 -50 13
-78 43 -144 148 -43 70 -845 1324 -1034 1617 -25 39 -82 128 -128 199 -82 127
-83 128 -98 105 -8 -13 -79 -123 -157 -244 -78 -121 -148 -229 -154 -239 -6
-11 -15 -25 -19 -30 -4 -6 -40 -62 -80 -123 -166 -259 -194 -303 -259 -402
-37 -57 -68 -105 -68 -107 0 -2 -26 -43 -58 -91 -32 -48 -72 -110 -90 -138
-18 -27 -37 -57 -42 -65 -6 -8 -39 -60 -74 -115 -278 -433 -304 -472 -333
-490 -58 -38 -135 -37 -180 3 -67 58 -124 280 -126 490 -2 284 50 511 178 767
252 505 770 858 1320 901 44 4 81 8 83 9 5 4 218 -4 257 -10z"/>
<path d="M2370 2109 c-102 -105 -186 -194 -188 -197 -2 -8 744 -10 752 -2 3 3
-33 46 -81 95 -192 203 -284 295 -291 295 -4 0 -90 -86 -192 -191z"/>
<path d="M1768 1478 c-68 -72 -157 -167 -198 -211 -41 -44 -116 -123 -166
-175 l-91 -96 36 -29 c197 -158 557 -322 791 -363 14 -3 33 -7 42 -10 63 -19
254 -32 423 -29 200 4 204 4 357 36 288 59 567 183 781 346 31 24 57 47 57 51
0 4 -35 43 -78 88 -42 44 -138 146 -212 225 -74 79 -168 178 -208 220 l-73 77
-669 0 -669 0 -123 -130z"/>
</g>
</svg>
