<?xml version="1.0" standalone="no"?>
<!DOCTYPE svg PUBLIC "-//W3C//DTD SVG 20010904//EN"
 "http://www.w3.org/TR/2001/REC-SVG-20010904/DTD/svg10.dtd">
<svg version="1.0" xmlns="http://www.w3.org/2000/svg"
 width="512.000000pt" height="512.000000pt" viewBox="0 0 512.000000 512.000000"
 preserveAspectRatio="xMidYMid meet">
<metadata>
Created by potrace 1.14, written by Peter Selinger 2001-2017
</metadata>
<g transform="translate(0.000000,512.000000) scale(0.100000,-0.100000)"
fill="#000000" stroke="none">
<path d="M2369 5116 c-2 -2 -33 -6 -69 -10 -58 -5 -191 -26 -274 -41 -60 -12
-244 -65 -331 -95 -695 -246 -1272 -814 -1530 -1505 -36 -96 -98 -304 -109
-362 -2 -15 -9 -53 -15 -83 -29 -159 -36 -244 -35 -470 0 -113 4 -234 8 -270
5 -36 10 -72 11 -80 20 -162 84 -401 157 -590 45 -116 138 -296 175 -339 123
-145 346 -174 528 -71 57 32 103 77 295 280 74 79 153 162 175 185 22 23 105
111 185 195 80 84 161 169 180 189 19 20 100 106 180 190 80 84 168 177 195
206 149 156 359 378 410 433 l58 62 40 -42 c22 -24 95 -101 162 -173 68 -71
142 -150 165 -175 51 -54 265 -282 371 -394 42 -45 96 -101 119 -126 90 -97
287 -305 320 -340 19 -20 96 -101 170 -180 212 -226 271 -284 324 -313 182
-101 396 -75 519 63 44 49 134 219 185 350 29 75 72 201 72 210 -1 3 8 31 19
63 11 31 18 57 16 57 -2 0 2 21 10 48 7 26 17 67 21 92 4 25 8 47 9 50 1 3 5
34 10 70 4 36 10 74 12 85 8 48 10 456 3 520 -17 137 -21 169 -32 219 -5 28
-14 69 -18 92 -14 64 -57 215 -86 296 -185 521 -521 954 -986 1272 -53 36
-100 66 -104 66 -4 0 -15 6 -23 14 -20 18 -257 137 -331 166 -142 57 -380 128
-490 146 -14 2 -38 6 -55 9 -16 3 -50 8 -75 11 -25 3 -56 8 -70 11 -28 5 -466
14 -471 9z m431 -450 c379 -58 630 -148 904 -323 304 -195 565 -481 733 -803
46 -88 113 -241 117 -265 1 -5 4 -14 8 -20 6 -10 37 -117 43 -145 2 -8 8 -35
15 -60 63 -234 74 -597 25 -827 -30 -145 -83 -281 -121 -314 -76 -67 -204 -62
-272 11 -16 18 -414 632 -512 790 -14 22 -126 198 -250 390 -124 193 -232 362
-240 375 -22 38 -354 555 -430 670 -36 55 -67 105 -70 111 -3 5 -45 72 -94
148 -72 111 -91 135 -102 124 -11 -12 -243 -369 -268 -413 -10 -18 -118 -185
-146 -225 -5 -8 -78 -121 -161 -250 -83 -129 -173 -269 -200 -310 -27 -41 -71
-111 -99 -155 -28 -44 -73 -114 -100 -155 -28 -41 -72 -111 -100 -155 -28 -44
-125 -195 -216 -335 -91 -140 -200 -309 -242 -375 -144 -223 -156 -239 -199
-263 -79 -43 -168 -34 -227 24 -58 56 -121 250 -143 440 -14 116 -6 463 11
516 3 7 7 31 10 53 14 109 71 305 132 454 157 380 452 731 813 966 219 142
537 266 771 301 19 3 46 7 60 10 14 2 54 7 90 10 36 3 66 7 68 9 5 5 355 -3
392 -9z"/>
<path d="M2456 2127 c-60 -62 -168 -173 -240 -247 -73 -74 -135 -140 -139
-146 -4 -8 135 -11 484 -11 269 0 488 4 487 8 -2 4 -94 101 -204 216 -111 114
-219 227 -241 250 l-40 41 -107 -111z"/>
<path d="M1710 1342 c-6 -2 -34 -29 -63 -60 -29 -30 -70 -74 -92 -97 -22 -24
-98 -105 -170 -181 -71 -76 -166 -176 -210 -223 -44 -46 -89 -94 -100 -106
-11 -12 -40 -43 -65 -69 l-45 -47 30 -25 c55 -46 230 -161 324 -213 224 -125
516 -231 751 -274 88 -17 114 -20 235 -34 81 -10 423 -10 510 0 123 13 139 15
165 21 14 2 61 12 105 20 245 48 595 184 781 304 32 21 66 41 74 45 25 10 204
142 207 153 1 5 -27 41 -63 79 -252 266 -325 344 -354 375 -18 19 -92 97 -164
173 -72 77 -134 144 -138 150 -4 7 -265 11 -857 11 -468 1 -856 -1 -861 -2z"/>
</g>
</svg>
