<?xml version="1.0" standalone="no"?>
<!DOCTYPE svg PUBLIC "-//W3C//DTD SVG 20010904//EN"
 "http://www.w3.org/TR/2001/REC-SVG-20010904/DTD/svg10.dtd">
<svg version="1.0" xmlns="http://www.w3.org/2000/svg"
 width="260.000000pt" height="260.000000pt" viewBox="0 0 260.000000 260.000000"
 preserveAspectRatio="xMidYMid meet">
<metadata>
Created by potrace 1.14, written by Peter Selinger 2001-2017
</metadata>
<g transform="translate(0.000000,260.000000) scale(0.100000,-0.100000)"
fill="#000000" stroke="none">
<path d="M1208 2415 c-2 -1 -25 -5 -53 -8 -76 -8 -171 -32 -257 -65 -374 -144
-648 -487 -702 -879 -22 -156 -14 -286 29 -473 2 -8 18 -52 35 -98 59 -153
117 -212 209 -212 71 0 118 31 228 147 55 60 125 133 154 164 30 31 117 123
194 204 77 81 166 175 198 209 l59 61 95 -100 c52 -55 140 -149 196 -209 56
-60 120 -127 142 -151 22 -23 92 -97 155 -165 121 -129 164 -159 237 -161 52
-2 105 22 136 62 54 71 115 238 143 389 12 67 11 265 -3 345 -77 469 -432 832
-904 926 -49 9 -283 21 -291 14z m277 -211 c356 -70 649 -363 719 -719 9 -44
17 -111 19 -149 7 -152 -35 -315 -85 -332 -77 -27 -63 -44 -464 582 -202 316
-370 574 -373 574 -4 0 -40 -53 -81 -118 -74 -117 -158 -247 -297 -462 -41
-63 -96 -149 -122 -190 -144 -223 -239 -366 -253 -377 -21 -18 -62 -20 -92 -4
-18 10 -31 32 -46 75 -80 241 -14 561 160 780 227 285 561 409 915 340z"/>
<path d="M1191 1046 c-56 -57 -99 -106 -94 -108 11 -6 401 -4 407 2 5 6 -190
210 -202 210 -4 0 -54 -47 -111 -104z"/>
<path d="M858 697 c-37 -39 -107 -115 -157 -167 -50 -52 -91 -98 -91 -102 0
-13 90 -75 170 -116 229 -121 463 -154 745 -106 17 2 38 7 47 10 9 3 25 7 35
9 111 26 384 170 383 203 0 7 -24 33 -226 245 l-93 97 -373 0 -373 0 -67 -73z"/>
</g>
</svg>
